Love for All and Sharing is the first step to solving all the problems of humanity.

Website I want to share. 
               
   http://www.scenetime.com
 
 
  Credit to EVERYONE for sharing and seeding back
 especially to SCENETIME.COM where i get all my 
 downloads.


 support www.scenetime.com to grow faster.

                             
                                                            
                                                   

.                 ..................................NFO:....................................*******************************************************************************
                     Wide.Sargasso.Sea.2006.DVDRip.AC3.X264-BARC0DE
*******************************************************************************

-------------------------------------------------------------------------------
                              General Information
-------------------------------------------------------------------------------
Type.................: Movie
Name.................: Wide Sargasso Sea
Movie Information....: http://www.imdb.com/title/tt0828462/
Genre................: Drama | Romance
-------------------------------------------------------------------------------
                                    PLOT
-------------------------------------------------------------------------------
In this prequel to Jane Eyre, Edward Rochester finds himself in Jamaica looking 
to make his fortune. As the second son, the expectation is that his brother will 
inherit the family estate and so his future must lie elsewhere. He soon meets 
Antoinette Cosway and is offered a substantial dowry to marry her. Only after 
the wedding does he learn of her family history, including the madness that 
afflicted her mother. Their relationship in a constant downward spiral, he decides 
that they should return to England where he keeps her locked away in her room. 

-------------------------------------------------------------------------------
                                    CAST
-------------------------------------------------------------------------------
Rafe Spall	... 	Edward Rochester
Rebecca Hall	... 	Antoinette Cosway
Nina Sosanya	... 	Christophine
Victoria Hamilton	... 	Aunt Cora
Fraser Ayres	... 	Daniel
Lorraine Burroughs	... 	Amelie
Alex Robertson	... 	Richard Mason
Karen Meagher	... 	Grace Poole

-------------------------------------------------------------------------------
                                    MEDiA iNFO
-------------------------------------------------------------------------------

General
Complete name                    : Wide.Sargasso.Sea.2006.DVDRip.AC3.X264-BARC0DE.mkv
Format                           : Matroska
File size                        : 1.09 GiB
Duration                         : 1h 23mn
Overall bit rate                 : 1 859 Kbps

Video
ID                               : 1
Format                           : AVC
Format/Info                      : Advanced Video Codec
Format profile                   : High@L3.0
Format settings, CABAC           : Yes
Format settings, ReFrames        : 3 frames
Muxing mode                      : Container profile=Unknown@3.0
Codec ID                         : V_MPEG4/ISO/AVC
Duration                         : 1h 23mn
Bit rate                         : 1 641 Kbps
Width                            : 704 pixels
Height                           : 400 pixels
Display aspect ratio             : 16:9
Frame rate                       : 25.000 fps
Color space                      : YUV
Chroma subsampling               : 4:2:0
Bit depth                        : 8 bits
Scan type                        : Progressive
Bits/(Pixel*Frame)               : 0.233
Stream size                      : 958 MiB (86%)
Writing library                  : x264 core 79

Audio
ID                               : 2
Format                           : AC-3
Format/Info                      : Audio Coding 3
Mode extension                   : CM (complete main)
Codec ID                         : A_AC3
Duration                         : 1h 23mn
Bit rate mode                    : Constant
Bit rate                         : 224 Kbps
Channel(s)                       : 2 channels
Channel positions                : Front: L R
Sampling rate                    : 48.0 KHz
Stream size                      : 134 MiB (12%)
Language                         : English